<?xml version="1.0" standalone="no"?>
<!DOCTYPE svg PUBLIC "-//W3C//DTD SVG 20010904//EN"
 "http://www.w3.org/TR/2001/REC-SVG-20010904/DTD/svg10.dtd">
<svg version="1.0" xmlns="http://www.w3.org/2000/svg"
 width="700.000000pt" height="700.000000pt" viewBox="0 0 700.000000 700.000000"
 preserveAspectRatio="xMidYMid meet">
<metadata>
Created by potrace 1.11, written by Peter Selinger 2001-2013
</metadata>
<g transform="translate(0.000000,700.000000) scale(0.100000,-0.100000)"
fill="#000000" stroke="none">
<path d="M3282 6990 c-1627 -106 -2964 -1310 -3231 -2910 -34 -205 -45 -343
-45 -580 0 -326 28 -552 105 -863 114 -455 338 -917 620 -1280 336 -431 765
-778 1254 -1013 124 -59 352 -152 441 -178 20 -6 21 -1 33 181 7 104 15 209
18 236 l6 47 1016 0 1017 0 13 -193 c17 -269 18 -279 45 -271 93 28 319 120
451 184 866 421 1510 1164 1803 2081 174 545 212 1120 112 1691 -202 1146
-987 2132 -2066 2593 -490 210 -1064 309 -1592 275z m534 -1600 l315 -280 105
0 106 0 34 -34 c47 -47 47 -95 0 -142 l-34 -34 -836 0 c-626 0 -842 3 -861 12
-71 32 -71 154 0 186 14 7 69 12 123 12 l97 0 315 280 c173 154 316 280 318
280 2 0 145 -126 318 -280z m641 -1002 c29 -27 29 -65 1 -95 -19 -20 -31 -23
-105 -23 l-83 0 0 -175 0 -175 53 0 c62 0 108 -24 137 -72 51 -84 -5 -194
-104 -205 -30 -4 -46 -10 -46 -19 0 -22 29 -445 34 -496 l5 -48 -849 0 -850 0
1 48 c0 26 6 119 12 207 l12 160 146 3 146 3 7 46 c3 25 6 56 6 69 l0 24 -178
0 c-153 0 -182 3 -211 18 -65 35 -89 123 -53 191 25 46 74 71 139 71 l53 0 0
175 0 175 -85 0 c-97 0 -125 16 -125 70 0 17 9 39 20 50 20 20 33 20 957 20
l937 0 23 -22z m-76 -1805 c0 -5 8 -115 17 -245 l17 -238 -917 0 -918 0 0 23
c0 12 7 112 15 222 8 110 15 210 15 223 l0 22 885 0 c487 0 885 -3 886 -7z
m78 -1145 c6 -95 14 -206 18 -245 l6 -73 -986 0 -986 0 4 33 c3 17 9 109 15
202 6 94 13 189 16 213 l5 42 948 0 948 0 12 -172z"/>
<path d="M2870 4095 l0 -175 70 0 70 0 0 175 0 175 -70 0 -70 0 0 -175z"/>
<path d="M3150 4095 l0 -175 70 0 70 0 0 175 0 175 -70 0 -70 0 0 -175z"/>
<path d="M3430 4095 l0 -175 65 0 65 0 0 175 0 175 -65 0 -65 0 0 -175z"/>
<path d="M3710 4095 l0 -175 65 0 65 0 0 175 0 175 -65 0 -65 0 0 -175z"/>
<path d="M3990 4095 l0 -175 65 0 65 0 0 175 0 175 -65 0 -65 0 0 -175z"/>
</g>
</svg>
