<?xml version="1.0" standalone="no"?><!DOCTYPE svg PUBLIC "-//W3C//DTD SVG 1.1//EN" "http://www.w3.org/Graphics/SVG/1.1/DTD/svg11.dtd"><svg t="1537118601725" class="icon" style="" viewBox="0 0 1024 1024" version="1.1" xmlns="http://www.w3.org/2000/svg" p-id="5442" xmlns:xlink="http://www.w3.org/1999/xlink" width="200" height="200"><defs><style type="text/css"></style></defs><path d="M384 384l177.11104 0 0 90.78784 2.53952 0c24.63744-44.19584 84.95104-90.78784 174.83776-90.78784 186.94144 0 221.51168 116.36736 221.51168 267.73504l0 308.26496-184.60672 0 0-273.28512c0-65.18784-1.3312-149.03296-96.03072-149.03296-96.1536 0-110.81728 70.98368-110.81728 144.30208l0 278.016-184.54528 0 0-576z" p-id="5443"></path><path d="M64 384l192 0 0 576-192 0 0-576z" p-id="5444"></path><path d="M256 224.01024c0 53.02272-42.98752 96.01024-96.01024 96.01024s-96.01024-42.98752-96.01024-96.01024c0-53.02272 42.98752-96.01024 96.01024-96.01024s96.01024 42.98752 96.01024 96.01024z" p-id="5445"></path></svg>