<?xml version="1.0" standalone="no"?><!DOCTYPE svg PUBLIC "-//W3C//DTD SVG 1.1//EN" "http://www.w3.org/Graphics/SVG/1.1/DTD/svg11.dtd"><svg t="1537118478704" class="icon" style="" viewBox="0 0 1025 1024" version="1.1" xmlns="http://www.w3.org/2000/svg" p-id="3088" xmlns:xlink="http://www.w3.org/1999/xlink" width="200.1953125" height="200"><defs><style type="text/css"></style></defs><path d="M385.728012 733.717333q12.010667-19.434667 6.293333-39.424t-25.706667-28.565333q-19.434667-8-41.706667-0.576t-34.282667 26.282667q-12.565333 19.434667-7.424 39.146667t24.576 28.864 42.581333 1.429333 35.712-27.136zM439.445346 664.576q4.565333-7.424 2.005333-15.146667t-10.005333-10.581333q-8-2.858667-16.277333 0.277333t-12.288 10.581333q-9.706667 17.706667 7.424 25.706667 8 2.858667 16.576-0.277333t12.565333-10.581333zM538.880012 725.717333q-25.706667 58.282667-90.282667 85.717333t-128 6.848q-61.141333-19.434667-84.288-72.277333t3.712-107.136q26.858667-53.141333 86.570667-79.424t120.277333-10.858667q63.424 16.576 90.581333 68.288t1.429333 108.864zM717.162679 634.282667q-5.141333-54.848-50.858667-97.152t-119.146667-62.293333-156.864-12.010667q-127.424 13.141333-211.136 80.853333t-75.712 151.146667q5.141333 54.848 50.858667 97.152t119.146667 62.293333 156.864 12.010667q127.424-13.141333 211.136-80.853333t75.712-151.146667zM893.162679 636.565333q0 38.848-21.141333 79.722667t-62.293333 78.293333-96.277333 67.136-129.152 47.424-154.581333 17.706667-157.141333-19.136-137.429333-53.141333-98.005333-86.293333-37.141333-114.005333q0-65.706667 39.722667-140.010667t112.853333-147.434667q96.576-96.576 195.136-134.848t140.864 4.010667q37.141333 36.565333 11.434667 119.424-2.282667 8-0.576 11.434667t5.717333 4.010667 8.277333-0.277333 7.722667-2.005333l3.434667-1.152q79.424-33.706667 140.565333-33.706667t87.424 34.858667q25.706667 36.010667 0 101.717333-1.152 7.424-2.581333 11.434667t2.581333 7.146667 6.848 4.288 9.706667 3.434667q32.576 10.282667 58.858667 26.858667t45.717333 46.570667 19.434667 66.581333zM850.880012 280q24 26.858667 31.146667 61.994667t-3.712 67.136q-4.565333 13.141333-16.853333 19.434667t-25.429333 2.282667q-13.141333-4.565333-19.434667-16.853333t-2.282667-25.429333q11.434667-36.010667-13.717333-63.424t-61.141333-20.010667q-13.717333 2.858667-25.706667-4.565333t-14.293333-21.141333q-2.858667-13.717333 4.565333-25.429333t21.141333-14.570667q34.282667-7.424 68.010667 3.136t57.706667 37.418667zM954.304012 186.858667q49.706667 54.848 64.277333 127.146667t-7.722667 138.005333q-5.141333 15.424-19.434667 22.848t-29.717333 2.282667-22.848-19.434667-2.858667-29.717333q16-46.848 5.717333-98.282667t-45.717333-90.282667q-35.434667-39.424-84.565333-54.570667t-98.858667-4.864q-16 3.434667-29.717333-5.418667t-17.152-24.853333 5.418667-29.418667 24.853333-16.853333q70.293333-14.848 139.434667 6.570667t118.848 76.864z" p-id="3089"></path></svg>