<?xml version="1.0" standalone="no"?><!DOCTYPE svg PUBLIC "-//W3C//DTD SVG 1.1//EN" "http://www.w3.org/Graphics/SVG/1.1/DTD/svg11.dtd"><svg t="1537118451763" class="icon" style="" viewBox="0 0 1026 1024" version="1.1" xmlns="http://www.w3.org/2000/svg" p-id="2782" xmlns:xlink="http://www.w3.org/1999/xlink" width="200.390625" height="200"><defs><style type="text/css"></style></defs><path d="M1012.49 451.553v0.159c-6.697 20.66-28.861 31.99-49.449 25.288a39.352 39.352 0 0 1-25.287-49.582l-0.067-0.031c20.536-63.6 7.516-136.156-40.315-189.363-47.892-53.212-118.502-73.554-183.731-59.659-21.222 4.537-42.133-9.047-46.638-30.3-4.506-21.253 9.021-42.194 30.239-46.73 91.709-19.563 191.114 8.98 258.467 83.881 67.36 74.839 85.515 176.85 56.781 266.337z" fill="#D32024" p-id="2783"></path><path d="M740.429 304.348v-0.03c-18.217 3.973-36.178-7.732-40.06-26.01-3.947-18.31 7.763-36.373 25.98-40.254 44.692-9.548 93.143 4.322 125.885 40.781 32.866 36.496 41.631 86.17 27.607 129.772a33.833 33.833 0 0 1-42.562 21.847c-17.782-5.76-27.484-24.914-21.724-42.69h-0.062c6.887-21.346 2.565-45.635-13.46-63.473-16.026-17.818-39.752-24.546-61.604-19.943z m30.05 192.184c-14.46-4.352-24.352-7.326-16.774-26.352 16.333-41.313 18.027-76.964 0.317-102.385-33.31-47.734-124.451-45.133-228.838-1.28 0-0.061-32.799 14.367-24.412-11.704 16.056-51.774 13.645-95.186-11.361-120.192-56.658-56.878-207.304 2.12-336.477 131.64C56.187 463.32 0 566.14 0 655.1 0 825.18 217.503 928.594 430.28 928.594c278.917 0 464.527-162.504 464.527-291.59 0-77.936-65.546-122.193-124.329-140.472zM430.842 867.62c-169.774 16.84-316.35-60.155-327.368-171.96-11.049-111.74 117.72-216.034 287.488-232.873 169.805-16.84 316.355 60.16 327.368 171.904 11.018 111.866-117.683 216.09-287.488 232.929z" fill="#D32024" p-id="2784"></path><path d="M447.805 548.859c-80.783-21.09-172.119 19.287-207.206 90.65-35.743 72.862-1.188 153.681 80.44 180.1 84.578 27.357 184.233-14.525 218.88-93.148 34.181-76.81-8.478-155.94-92.114-177.602zM386.12 734.792c-16.43 26.29-51.584 37.806-78.065 25.661-26.107-11.889-33.833-42.44-17.403-68.045 16.215-25.538 50.207-36.869 76.498-25.856 26.604 11.392 35.087 41.687 18.97 68.24z" fill="#D32024" p-id="2785"></path></svg>