<?xml version="1.0" standalone="no"?><!DOCTYPE svg PUBLIC "-//W3C//DTD SVG 1.1//EN" "http://www.w3.org/Graphics/SVG/1.1/DTD/svg11.dtd"><svg t="1537118414633" class="icon" style="" viewBox="0 0 1024 1024" version="1.1" xmlns="http://www.w3.org/2000/svg" p-id="2100" xmlns:xlink="http://www.w3.org/1999/xlink" width="200" height="200"><defs><style type="text/css"></style></defs><path d="M612.132558 691.480744 662.888546 656.141888 703.577247 656.141888 703.577247 375.380436 587.504648 375.380436 587.504648 656.141888 600.147596 656.141888 612.132558 691.480744Z" p-id="2101"></path><path d="M512 75.213006c-228.671073 0-414.016385 195.538465-414.016385 436.786994 0 241.247506 185.346335 436.785971 414.016385 436.785971s414.016385-195.539488 414.016385-436.785971C926.016385 270.751471 740.67005 75.213006 512 75.213006L512 75.213006zM430.8027 539.753087c0 0.443092-0.059352 0.948605-0.12075 1.391696-1.318018 18.965957-5.632277 40.776705-11.564383 62.841234l0-0.064468 21.452591-16.753569 63.399959 74.915223c8.270361 30.661324-2.996241 58.542324-2.996241 58.542324l-85.452207-103.934141 0-0.12689c-8.449439 28.448936-19.296485 56.455803-29.783327 78.582753-20.134573 42.48358-49.197492 50.892087-79.93761 53.674457-30.741142 2.78237-20.794605-4.868891-20.794605-4.868891 60.762899-51.586912 69.692269-81.553411 86.530772-114.301256 10.606569-20.673855 18.216897-59.616796 22.531156-89.899496L290.339598 539.752064c0 0 4.314259-28.891004 17.197684-38.690184l90.846054 0c0.538259-14.224979-1.198292-95.462189-1.797949-121.951493l-44.10552 0c-8.269337 41.787732-36.673248 52.599985-42.905182 55.760978-6.29231 3.160993-21.152762 6.638187-18.816554 0 2.337231-6.638187 24.090675-42.863227 38.651298-102.796224 14.561647-59.931974 57.108672-57.530274 57.108672-57.530274-11.44568 20.926612-20.014846 68.278059-20.014846 68.278059l142.679583 0c9.049097 0 9.468652 36.225039 9.468652 36.225039l-81.256652 0c-0.659009 21.052478-2.456958 77.761038-4.494361 121.951493l85.332481 0c0 0 10.905374 14.287401 10.905374 38.690184l-98.335632 0L430.8027 539.753087 430.8027 539.753087zM740.430596 694.832072l-78.260411 0-62.080917 43.305295-14.681374-43.305295-35.83516 0L549.572734 335.236134l190.858886 0L740.431619 694.832072 740.430596 694.832072z" p-id="2102"></path></svg>